<svg viewBox="0 0 224 239" fill="none" xmlns="http://www.w3.org/2000/svg">
    <path d="M112 0L208.995 59.75V179.25L112 239L15.0052 179.25V59.75L112 0Z" fill="#454545"/>
    <path d="M135.474 116.584C141.618 118.024 146.466 121 150.018 125.512C153.666 130.024 155.49 135.256 155.49 141.208C155.49 149.944 152.562 156.76 146.706 161.656C140.946 166.552 132.642 169 121.794 169H74.4179V67.192H120.642C131.01 67.192 139.026 69.448 144.69 73.96C150.354 78.472 153.186 84.904 153.186 93.256C153.186 99.4 151.554 104.536 148.29 108.664C145.026 112.696 140.754 115.336 135.474 116.584ZM99.0419 108.808H115.17C123.714 108.808 127.986 105.16 127.986 97.864C127.986 90.568 123.618 86.92 114.882 86.92H99.0419V108.808ZM116.61 148.984C125.73 148.984 130.29 145.24 130.29 137.752C130.29 134.104 129.09 131.272 126.69 129.256C124.29 127.144 120.882 126.088 116.466 126.088H99.0419V148.984H116.61Z" fill="white"/>
</svg>
